{
    "asset" : {
        "generator" : "Khronos glTF Blender I/O v1.8.19",
        "version" : "2.0"
    },
    "scene" : 0,
    "scenes" : [
        {
            "name" : "Scene",
            "nodes" : [
                0
            ]
        }
    ],
    "nodes" : [
        {
            "mesh" : 0,
            "name" : "goalText",
            "translation" : [
                1.0050034523010254,
                0,
                -0.21537593007087708
            ]
        }
    ],
    "meshes" : [
        {
            "name" : "Text",
            "primitives" : [
                {
                    "attributes" : {
                        "POSITION" : 0,
                        "NORMAL" : 1,
                        "TEXCOORD_0" : 2
                    },
                    "indices" : 3
                }
            ]
        }
    ],
    "accessors" : [
        {
            "bufferView" : 0,
            "componentType" : 5126,
            "count" : 16332,
            "max" : [
                1.0042890310287476,
                0.07000000774860382,
                0.24537594616413116
            ],
            "min" : [
                -1.004289150238037,
                -0.07000000774860382,
                -0.24537594616413116
            ],
            "type" : "VEC3"
        },
        {
            "bufferView" : 1,
            "componentType" : 5126,
            "count" : 16332,
            "type" : "VEC3"
        },
        {
            "bufferView" : 2,
            "componentType" : 5126,
            "count" : 16332,
            "type" : "VEC2"
        },
        {
            "bufferView" : 3,
            "componentType" : 5123,
            "count" : 70728,
            "type" : "SCALAR"
        }
    ],
    "bufferViews" : [
        {
            "buffer" : 0,
            "byteLength" : 195984,
            "byteOffset" : 0
        },
        {
            "buffer" : 0,
            "byteLength" : 195984,
            "byteOffset" : 195984
        },
        {
            "buffer" : 0,
            "byteLength" : 130656,
            "byteOffset" : 391968
        },
        {
            "buffer" : 0,
            "byteLength" : 141456,
            "byteOffset" : 522624
        }
    ],
    "buffers" : [
        {
            "byteLength" : 664080,
            "uri" : "data:application/octet-stream;base64,"
        }
    ]
}
