{
    "asset" : {
        "generator" : "Khronos glTF Blender I/O v1.8.19",
        "version" : "2.0"
    },
    "scene" : 0,
    "scenes" : [
        {
            "name" : "Scene",
            "nodes" : [
                0
            ]
        }
    ],
    "nodes" : [
        {
            "mesh" : 0,
            "name" : "Text",
            "translation" : [
                2.929271697998047,
                0,
                -0.2153947353363037
            ]
        }
    ],
    "meshes" : [
        {
            "name" : "Text",
            "primitives" : [
                {
                    "attributes" : {
                        "POSITION" : 0,
                        "NORMAL" : 1,
                        "TEXCOORD_0" : 2
                    },
                    "indices" : 3
                }
            ]
        }
    ],
    "accessors" : [
        {
            "bufferView" : 0,
            "componentType" : 5126,
            "count" : 38209,
            "max" : [
                2.9571707248687744,
                0.14000000059604645,
                0.26539474725723267
            ],
            "min" : [
                -2.9571707248687744,
                -0.14000000059604645,
                -0.26539474725723267
            ],
            "type" : "VEC3"
        },
        {
            "bufferView" : 1,
            "componentType" : 5126,
            "count" : 38209,
            "type" : "VEC3"
        },
        {
            "bufferView" : 2,
            "componentType" : 5126,
            "count" : 38209,
            "type" : "VEC2"
        },
        {
            "bufferView" : 3,
            "componentType" : 5123,
            "count" : 166524,
            "type" : "SCALAR"
        }
    ],
    "bufferViews" : [
        {
            "buffer" : 0,
            "byteLength" : 458508,
            "byteOffset" : 0
        },
        {
            "buffer" : 0,
            "byteLength" : 458508,
            "byteOffset" : 458508
        },
        {
            "buffer" : 0,
            "byteLength" : 305672,
            "byteOffset" : 917016
        },
        {
            "buffer" : 0,
            "byteLength" : 333048,
            "byteOffset" : 1222688
        }
    ],
    "buffers" : [
        {
            "byteLength" : 1555736,
            "uri" : "data:application/octet-stream;base64,"
        }
    ]
}
