{
    "asset" : {
        "generator" : "Khronos glTF Blender I/O v1.7.33",
        "version" : "2.0"
    },
    "extensionsUsed" : [
        "KHR_materials_unlit"
    ],
    "scene" : 0,
    "scenes" : [
        {
            "name" : "Scene",
            "nodes" : [
                0,
                1,
                2,
                3
            ]
        }
    ],
    "nodes" : [
        {
            "mesh" : 0,
            "name" : "Plane",
            "rotation" : [
                0.7071068286895752,
                0,
                0,
                0.7071068286895752
            ],
            "scale" : [
                2.8905091285705566,
                2.021113395690918,
                2.021113395690918
            ],
            "translation" : [
                3.909188747406006,
                0.21583224833011627,
                -1.0104058980941772
            ]
        },
        {
            "mesh" : 1,
            "name" : "Plane.001",
            "rotation" : [
                0.7071068286895752,
                0,
                0,
                0.7071068286895752
            ],
            "scale" : [
                1.430156946182251,
                1,
                1
            ],
            "translation" : [
                -2.8078386783599854,
                0,
                0
            ]
        },
        {
            "mesh" : 2,
            "name" : "Plane.002",
            "rotation" : [
                0.7071068286895752,
                0,
                0,
                0.7071068286895752
            ],
            "scale" : [
                1.430156946182251,
                1,
                1
            ],
            "translation" : [
                -3.067995071411133,
                -0.7226289510726929,
                -1.8748289346694946
            ]
        },
        {
            "mesh" : 3,
            "name" : "Plane.003",
            "rotation" : [
                0.7071068286895752,
                0,
                0,
                0.7071068286895752
            ],
            "scale" : [
                2.8905091285705566,
                2.021113395690918,
                2.021113395690918
            ],
            "translation" : [
                -4.729036808013916,
                0.21583224833011627,
                -0.88365638256073
            ]
        }
    ],
    "materials" : [
        {
            "doubleSided" : true,
            "extensions" : {
                "KHR_materials_unlit" : {}
            },
            "name" : "Material.001",
            "pbrMetallicRoughness" : {
                "baseColorTexture" : {
                    "index" : 0
                },
                "metallicFactor" : 0,
                "roughnessFactor" : 0.9
            }
        }
    ],
    "meshes" : [
        {
            "name" : "Plane",
            "primitives" : [
                {
                    "attributes" : {
                        "POSITION" : 0,
                        "NORMAL" : 1,
                        "TEXCOORD_0" : 2
                    },
                    "indices" : 3,
                    "material" : 0
                }
            ]
        },
        {
            "name" : "Plane.001",
            "primitives" : [
                {
                    "attributes" : {
                        "POSITION" : 4,
                        "NORMAL" : 5,
                        "TEXCOORD_0" : 6
                    },
                    "indices" : 7,
                    "material" : 0
                }
            ]
        },
        {
            "name" : "Plane.002",
            "primitives" : [
                {
                    "attributes" : {
                        "POSITION" : 8,
                        "NORMAL" : 9,
                        "TEXCOORD_0" : 10
                    },
                    "indices" : 11,
                    "material" : 0
                }
            ]
        },
        {
            "name" : "Plane.003",
            "primitives" : [
                {
                    "attributes" : {
                        "POSITION" : 12,
                        "NORMAL" : 13,
                        "TEXCOORD_0" : 14
                    },
                    "indices" : 3,
                    "material" : 0
                }
            ]
        }
    ],
    "textures" : [
        {
            "sampler" : 0,
            "source" : 0
        }
    ],
    "images" : [
        {
            "bufferView" : 4,
            "mimeType" : "image/png",
            "name" : "Tausta"
        }
    ],
    "accessors" : [
        {
            "bufferView" : 0,
            "componentType" : 5126,
            "count" : 8,
            "max" : [
                1.5556378364562988,
                1.9863357543945312,
                0.6591752767562866
            ],
            "min" : [
                -1.5556378364562988,
                -2.9611945152282715,
                -0.1283058226108551
            ],
            "type" : "VEC3"
        },
        {
            "bufferView" : 1,
            "componentType" : 5126,
            "count" : 8,
            "type" : "VEC3"
        },
        {
            "bufferView" : 2,
            "componentType" : 5126,
            "count" : 8,
            "type" : "VEC2"
        },
        {
            "bufferView" : 3,
            "componentType" : 5123,
            "count" : 12,
            "type" : "SCALAR"
        },
        {
            "bufferView" : 5,
            "componentType" : 5126,
            "count" : 20,
            "max" : [
                4.972072124481201,
                0.5822577476501465,
                0.9005007743835449
            ],
            "min" : [
                -1.2607771158218384,
                -1.830079197883606,
                0.8974851369857788
            ],
            "type" : "VEC3"
        },
        {
            "bufferView" : 6,
            "componentType" : 5126,
            "count" : 20,
            "type" : "VEC3"
        },
        {
            "bufferView" : 7,
            "componentType" : 5126,
            "count" : 20,
            "type" : "VEC2"
        },
        {
            "bufferView" : 8,
            "componentType" : 5123,
            "count" : 30,
            "type" : "SCALAR"
        },
        {
            "bufferView" : 9,
            "componentType" : 5126,
            "count" : 24,
            "max" : [
                5,
                0.04474973678588867,
                0.17712271213531494
            ],
            "min" : [
                -1,
                -0.04474997520446777,
                -0.16519111394882202
            ],
            "type" : "VEC3"
        },
        {
            "bufferView" : 10,
            "componentType" : 5126,
            "count" : 24,
            "type" : "VEC3"
        },
        {
            "bufferView" : 11,
            "componentType" : 5126,
            "count" : 24,
            "type" : "VEC2"
        },
        {
            "bufferView" : 12,
            "componentType" : 5123,
            "count" : 36,
            "type" : "SCALAR"
        },
        {
            "bufferView" : 13,
            "componentType" : 5126,
            "count" : 8,
            "max" : [
                1.5556378364562988,
                1.9863357543945312,
                0.6591752767562866
            ],
            "min" : [
                -1.5556378364562988,
                -2.9611945152282715,
                -0.1283058226108551
            ],
            "type" : "VEC3"
        },
        {
            "bufferView" : 14,
            "componentType" : 5126,
            "count" : 8,
            "type" : "VEC3"
        },
        {
            "bufferView" : 15,
            "componentType" : 5126,
            "count" : 8,
            "type" : "VEC2"
        }
    ],
    "bufferViews" : [
        {
            "buffer" : 0,
            "byteLength" : 96,
            "byteOffset" : 0
        },
        {
            "buffer" : 0,
            "byteLength" : 96,
            "byteOffset" : 96
        },
        {
            "buffer" : 0,
            "byteLength" : 64,
            "byteOffset" : 192
        },
        {
            "buffer" : 0,
            "byteLength" : 24,
            "byteOffset" : 256
        },
        {
            "buffer" : 0,
            "byteLength" : 71398,
            "byteOffset" : 280
        },
        {
            "buffer" : 0,
            "byteLength" : 240,
            "byteOffset" : 71680
        },
        {
            "buffer" : 0,
            "byteLength" : 240,
            "byteOffset" : 71920
        },
        {
            "buffer" : 0,
            "byteLength" : 160,
            "byteOffset" : 72160
        },
        {
            "buffer" : 0,
            "byteLength" : 60,
            "byteOffset" : 72320
        },
        {
            "buffer" : 0,
            "byteLength" : 288,
            "byteOffset" : 72380
        },
        {
            "buffer" : 0,
            "byteLength" : 288,
            "byteOffset" : 72668
        },
        {
            "buffer" : 0,
            "byteLength" : 192,
            "byteOffset" : 72956
        },
        {
            "buffer" : 0,
            "byteLength" : 72,
            "byteOffset" : 73148
        },
        {
            "buffer" : 0,
            "byteLength" : 96,
            "byteOffset" : 73220
        },
        {
            "buffer" : 0,
            "byteLength" : 96,
            "byteOffset" : 73316
        },
        {
            "buffer" : 0,
            "byteLength" : 64,
            "byteOffset" : 73412
        }
    ],
    "samplers" : [
        {
            "magFilter" : 9729,
            "minFilter" : 9987
        }
    ],
    "buffers" : [
        {
            "byteLength" : 73476,
            "uri" : "data:application/octet-stream;base64,"
        }
    ]
}
